# Wavefront OBJ file
# Exported by Maverick Model 3D 1.3.12
# Wed Dec 28 13:14:27 2022

mtllib mesh.mtl

# 60 Vertices
v -1.497773 -4.074325 0.0
v -0.462829 -4.074317 -1.424465
v 1.211725 -4.074318 -0.88036
v 1.211725 -4.074318 0.88036
v -0.462829 -4.074317 1.424465
v 3.618 -2.236075 0.867862
v 3.904058 -0.738294 1.748247
v 2.869113 -0.738301 3.172697
v 1.943441 -2.236075 3.172706
v 2.406275 -3.161757 1.74824
v -0.919096 -3.161757 2.828735
v 0.292634 -2.236075 3.709094
v -0.456272 -0.738288 4.2532
v -2.130812 -0.738301 3.709103
v -2.416876 -2.236075 2.828744
v -2.974352 -3.16175 0.0
v -3.437174 -2.236075 1.424456
v -4.186067 -0.738294 0.880352
v -4.186067 -0.738294 -0.880352
v -3.437174 -2.236075 -1.424456
v -0.919096 -3.161757 -2.828735
v -2.416876 -2.236075 -2.828744
v -2.130812 -0.738301 -3.709103
v -0.456272 -0.738288 -4.2532
v 0.292634 -2.236075 -3.709094
v 3.618 -2.236075 -0.867862
v 2.406275 -3.161757 -1.74824
v 1.943441 -2.236075 -3.172706
v 2.869113 -0.738301 -3.172697
v 3.904058 -0.738294 -1.748247
v 0.456272 0.738288 4.2532
v 2.130812 0.738301 3.709103
v 2.416876 2.236075 2.828744
v 0.919096 3.161757 2.828735
v -0.292634 2.236075 3.709094
v -3.904058 0.738294 1.748247
v -2.869113 0.738301 3.172697
v -1.943441 2.236075 3.172706
v -2.406275 3.161757 1.74824
v -3.618 2.236075 0.867862
v -2.869113 0.738301 -3.172697
v -3.904058 0.738294 -1.748247
v -3.618 2.236075 -0.867862
v -2.406275 3.161757 -1.74824
v -1.943441 2.236075 -3.172706
v 2.130812 0.738301 -3.709103
v 0.456272 0.738288 -4.2532
v -0.292634 2.236075 -3.709094
v 0.919096 3.161757 -2.828735
v 2.416876 2.236075 -2.828744
v 4.186067 0.738294 0.880352
v 4.186067 0.738294 -0.880352
v 3.437174 2.236075 -1.424456
v 2.974352 3.16175 0.0
v 3.437174 2.236075 1.424456
v 0.462829 4.074317 1.424465
v 1.497773 4.074325 0.0
v 0.462829 4.074317 -1.424465
v -1.211725 4.074318 -0.88036
v -1.211725 4.074318 0.88036

# 348 Texture Coordinates
vt 0.049282 1.166667
vt 0.049282 -0.166667
vt 0.424841 -0.166667
vt 0.049282 1.166667
vt 0.049282 -0.166667
vt 0.424841 -0.166667
vt 0.049282 1.166667
vt 0.049282 -0.166667
vt 0.424841 -0.166667
vt 0.049282 1.166667
vt 0.049282 -0.166667
vt 0.424841 -0.166667
vt 0.049282 1.166667
vt 0.049282 -0.166667
vt 0.424841 -0.166667
vt 0.049282 1.166667
vt 0.049282 -0.166667
vt 0.424841 -0.166667
vt 0.049282 1.166667
vt 0.049282 -0.166667
vt 0.424841 -0.166667
vt 0.049282 1.166667
vt 0.049282 -0.166667
vt 0.424841 -0.166667
vt 0.049282 1.166667
vt 0.049282 -0.166667
vt 0.424841 -0.166667
vt 0.049282 1.166667
vt 0.049282 -0.166667
vt 0.424841 -0.166667
vt 0.049282 1.166667
vt 0.049282 -0.166667
vt 0.424841 -0.166667
vt 0.049282 1.166667
vt 0.049282 -0.166667
vt 0.424841 -0.166667
vt 0.049282 1.166667
vt 0.049282 -0.166667
vt 0.424841 -0.166667
vt 0.049282 1.166667
vt 0.049282 -0.166667
vt 0.424841 -0.166667
vt 0.049282 1.166667
vt 0.049282 -0.166667
vt 0.424841 -0.166667
vt 0.049282 1.166667
vt 0.049282 -0.166667
vt 0.424841 -0.166667
vt 0.049282 1.166667
vt 0.049282 -0.166667
vt 0.424841 -0.166667
vt 0.049282 1.166667
vt 0.049282 -0.166667
vt 0.424841 -0.166667
vt 0.049282 1.166667
vt 0.049282 -0.166667
vt 0.424841 -0.166667
vt 0.049282 1.166667
vt 0.049282 -0.166667
vt 0.424841 -0.166667
vt 0.049282 1.166667
vt 0.049282 -0.166667
vt 0.424841 -0.166667
vt 0.049282 1.166667
vt 0.049282 -0.166667
vt 0.424841 -0.166667
vt 0.049282 1.166667
vt 0.049282 -0.166667
vt 0.424841 -0.166667
vt 0.049282 1.166667
vt 0.049282 -0.166667
vt 0.424841 -0.166667
vt 0.049282 1.166667
vt 0.049282 -0.166667
vt 0.424841 -0.166667
vt 0.049282 1.166667
vt 0.049282 -0.166667
vt 0.424841 -0.166667
vt 0.049282 1.166667
vt 0.049282 -0.166667
vt 0.424841 -0.166667
vt 0.049282 1.166667
vt 0.049282 -0.166667
vt 0.424841 -0.166667
vt 0.049282 1.166667
vt 0.049282 -0.166667
vt 0.424841 -0.166667
vt 0.049282 1.166667
vt 0.049282 -0.166667
vt 0.424841 -0.166667
vt 0.049282 1.166667
vt 0.049282 -0.166667
vt 0.424841 -0.166667
vt 0.049282 1.166667
vt 0.049282 -0.166667
vt 0.424841 -0.166667
vt 0.049282 1.166667
vt 0.049282 -0.166667
vt 0.424841 -0.166667
vt 0.049282 1.166667
vt 0.049282 -0.166667
vt 0.424841 -0.166667
vt 0.049282 1.166667
vt 0.049282 -0.166667
vt 0.424841 -0.166667
vt 0.049282 1.166667
vt 0.049282 -0.166667
vt 0.424841 -0.166667
vt 0.525877 0.992151
vt 0.525877 -0.007849
vt 0.917586 0.0
vt 0.525877 0.992151
vt 0.525877 -0.007849
vt 0.917586 0.0
vt 0.525877 0.992151
vt 0.525877 -0.007849
vt 0.917586 0.0
vt 0.525877 0.992151
vt 0.525877 -0.007849
vt 0.917586 0.0
vt 0.525877 0.992151
vt 0.525877 -0.007849
vt 0.917586 0.0
vt 0.525877 0.992151
vt 0.525877 -0.007849
vt 0.917586 0.0
vt 0.525877 0.992151
vt 0.525877 -0.007849
vt 0.917586 0.0
vt 0.525877 0.992151
vt 0.525877 -0.007849
vt 0.917586 0.0
vt 0.525877 0.992151
vt 0.525877 -0.007849
vt 0.917586 0.0
vt 0.525877 0.992151
vt 0.525877 -0.007849
vt 0.917586 0.0
vt 0.525877 0.992151
vt 0.525877 -0.007849
vt 0.917586 0.0
vt 0.525877 0.992151
vt 0.525877 -0.007849
vt 0.917586 0.0
vt 0.525877 0.992151
vt 0.525877 -0.007849
vt 0.917586 0.0
vt 0.525877 0.992151
vt 0.525877 -0.007849
vt 0.917586 0.0
vt 0.525877 0.992151
vt 0.525877 -0.007849
vt 0.917586 0.0
vt 0.525877 0.992151
vt 0.525877 -0.007849
vt 0.917586 0.0
vt 0.525877 0.992151
vt 0.525877 -0.007849
vt 0.917586 0.0
vt 0.525877 0.992151
vt 0.525877 -0.007849
vt 0.917586 0.0
vt 0.525877 0.992151
vt 0.525877 -0.007849
vt 0.917586 0.0
vt 0.525877 0.992151
vt 0.525877 -0.007849
vt 0.917586 0.0
vt 0.525877 0.992151
vt 0.525877 -0.007849
vt 0.917586 0.0
vt 0.525877 0.992151
vt 0.525877 -0.007849
vt 0.917586 0.0
vt 0.525877 0.992151
vt 0.525877 -0.007849
vt 0.917586 0.0
vt 0.525877 0.992151
vt 0.525877 -0.007849
vt 0.917586 0.0
vt 0.525877 0.992151
vt 0.525877 -0.007849
vt 0.917586 0.0
vt 0.525877 0.992151
vt 0.525877 -0.007849
vt 0.917586 0.0
vt 0.525877 0.992151
vt 0.525877 -0.007849
vt 0.917586 0.0
vt 0.525877 0.992151
vt 0.525877 -0.007849
vt 0.917586 0.0
vt 0.525877 0.992151
vt 0.525877 -0.007849
vt 0.917586 0.0
vt 0.525877 0.992151
vt 0.525877 -0.007849
vt 0.917586 0.0
vt 0.525877 0.992151
vt 0.525877 -0.007849
vt 0.917586 0.0
vt 0.525877 0.992151
vt 0.525877 -0.007849
vt 0.917586 0.0
vt 0.525877 0.992151
vt 0.525877 -0.007849
vt 0.917586 0.0
vt 0.525877 0.992151
vt 0.525877 -0.007849
vt 0.917586 0.0
vt 0.525877 0.992151
vt 0.525877 -0.007849
vt 0.917586 0.0
vt 0.525877 0.992151
vt 0.525877 -0.007849
vt 0.917586 0.0
vt 0.525877 0.992151
vt 0.525877 -0.007849
vt 0.917586 0.0
vt 0.525877 0.992151
vt 0.525877 -0.007849
vt 0.917586 0.0
vt 0.525877 0.992151
vt 0.525877 -0.007849
vt 0.917586 0.0
vt 0.525877 0.992151
vt 0.525877 -0.007849
vt 0.917586 0.0
vt 0.525877 0.992151
vt 0.525877 -0.007849
vt 0.917586 0.0
vt 0.525877 0.992151
vt 0.525877 -0.007849
vt 0.917586 0.0
vt 0.525877 0.992151
vt 0.525877 -0.007849
vt 0.917586 0.0
vt 0.525877 0.992151
vt 0.525877 -0.007849
vt 0.917586 0.0
vt 0.525877 0.992151
vt 0.525877 -0.007849
vt 0.917586 0.0
vt 0.525877 0.992151
vt 0.525877 -0.007849
vt 0.917586 0.0
vt 0.525877 0.992151
vt 0.525877 -0.007849
vt 0.917586 0.0
vt 0.525877 0.992151
vt 0.525877 -0.007849
vt 0.917586 0.0
vt 0.525877 0.992151
vt 0.525877 -0.007849
vt 0.917586 0.0
vt 0.525877 0.992151
vt 0.525877 -0.007849
vt 0.917586 0.0
vt 0.525877 0.992151
vt 0.525877 -0.007849
vt 0.917586 0.0
vt 0.525877 0.992151
vt 0.525877 -0.007849
vt 0.917586 0.0
vt 0.525877 0.992151
vt 0.525877 -0.007849
vt 0.917586 0.0
vt 0.525877 0.992151
vt 0.525877 -0.007849
vt 0.917586 0.0
vt 0.525877 0.992151
vt 0.525877 -0.007849
vt 0.917586 0.0
vt 0.525877 0.992151
vt 0.525877 -0.007849
vt 0.917586 0.0
vt 0.525877 0.992151
vt 0.525877 -0.007849
vt 0.917586 0.0
vt 0.525877 0.992151
vt 0.525877 -0.007849
vt 0.917586 0.0
vt 0.525877 0.992151
vt 0.525877 -0.007849
vt 0.917586 0.0
vt 0.525877 0.992151
vt 0.525877 -0.007849
vt 0.917586 0.0
vt 0.525877 0.992151
vt 0.525877 -0.007849
vt 0.917586 0.0
vt 0.525877 0.992151
vt 0.525877 -0.007849
vt 0.917586 0.0
vt 0.525877 0.992151
vt 0.525877 -0.007849
vt 0.917586 0.0
vt 0.525877 0.992151
vt 0.525877 -0.007849
vt 0.917586 0.0
vt 0.525877 0.992151
vt 0.525877 -0.007849
vt 0.917586 0.0
vt 0.525877 0.992151
vt 0.525877 -0.007849
vt 0.917586 0.0
vt 0.525877 0.992151
vt 0.525877 -0.007849
vt 0.917586 0.0
vt 0.525877 0.992151
vt 0.525877 -0.007849
vt 0.917586 0.0
vt 0.525877 0.992151
vt 0.525877 -0.007849
vt 0.917586 0.0
vt 0.525877 0.992151
vt 0.525877 -0.007849
vt 0.917586 0.0
vt 0.525877 0.992151
vt 0.525877 -0.007849
vt 0.917586 0.0
vt 0.525877 0.992151
vt 0.525877 -0.007849
vt 0.917586 0.0
vt 0.525877 0.992151
vt 0.525877 -0.007849
vt 0.917586 0.0
vt 0.525877 0.992151
vt 0.525877 -0.007849
vt 0.917586 0.0
vt 0.525877 0.992151
vt 0.525877 -0.007849
vt 0.917586 0.0
vt 0.525877 0.992151
vt 0.525877 -0.007849
vt 0.917586 0.0
vt 0.525877 0.992151
vt 0.525877 -0.007849
vt 0.917586 0.0
vt 0.525877 0.992151
vt 0.525877 -0.007849
vt 0.917586 0.0
vt 0.525877 0.992151
vt 0.525877 -0.007849
vt 0.917586 0.0
vt 0.525877 0.992151
vt 0.525877 -0.007849
vt 0.917586 0.0

# 348 Vertex Normals
vn -0.328725 -0.93349 0.143303
vn -0.314558 -0.880404 -0.354883
vn 0.264902 -0.912607 -0.31141
vn -0.328725 -0.93349 0.143303
vn 0.264902 -0.912607 -0.31141
vn 0.302183 -0.945089 0.124466
vn -0.328725 -0.93349 0.143303
vn 0.302183 -0.945089 0.124466
vn 0.045897 -0.880403 0.472
vn 0.747154 -0.630225 0.211134
vn 0.964311 -0.178802 0.195278
vn 0.705616 -0.070019 0.705126
vn 0.747154 -0.630225 0.211134
vn 0.705616 -0.070019 0.705126
vn 0.438637 -0.516167 0.735642
vn 0.747154 -0.630225 0.211134
vn 0.438637 -0.516167 0.735642
vn 0.460049 -0.763526 0.453191
vn -0.290313 -0.666078 0.687065
vn 0.108507 -0.59981 0.792751
vn 0.05466 -0.222593 0.973378
vn -0.290313 -0.666078 0.687065
vn 0.05466 -0.222593 0.973378
vn -0.452562 -0.070016 0.88898
vn -0.290313 -0.666078 0.687065
vn -0.452562 -0.070016 0.88898
vn -0.616786 -0.522308 0.588871
vn -0.743147 -0.66608 -0.063796
vn -0.720419 -0.59981 0.348172
vn -0.908846 -0.22259 0.352779
vn -0.743147 -0.66608 -0.063796
vn -0.908846 -0.22259 0.352779
vn -0.985319 -0.070012 -0.155707
vn -0.743147 -0.66608 -0.063796
vn -0.985319 -0.070012 -0.155707
vn -0.750638 -0.522309 -0.404643
vn -0.168968 -0.666078 -0.726491
vn -0.553741 -0.59981 -0.57758
vn -0.616351 -0.222591 -0.755358
vn -0.168968 -0.666078 -0.726491
vn -0.616351 -0.222591 -0.755358
vn -0.156398 -0.070017 -0.985209
vn -0.168968 -0.666078 -0.726491
vn -0.156398 -0.070017 -0.985209
vn 0.152875 -0.522309 -0.838941
vn 0.847864 -0.449016 -0.281978
vn 0.573174 -0.763527 -0.297487
vn 0.458309 -0.575878 -0.676991
vn 0.847864 -0.449016 -0.281978
vn 0.458309 -0.575878 -0.676991
vn 0.527919 -0.222594 -0.819605
vn 0.847864 -0.449016 -0.281978
vn 0.527919 -0.222594 -0.819605
vn 0.900318 -0.01106 -0.435093
vn 0.093975 0.273402 0.957298
vn 0.452563 0.070015 0.88898
vn 0.567663 0.445008 0.692623
vn 0.093975 0.273402 0.957298
vn 0.567663 0.445008 0.692623
vn 0.288843 0.763527 0.577578
vn 0.093975 0.273402 0.957298
vn 0.288843 0.763527 0.577578
vn -0.152875 0.522309 0.838941
vn -0.881402 0.273406 0.385201
vn -0.705616 0.070016 0.705127
vn -0.483301 0.445009 0.753915
vn -0.881402 0.273406 0.385201
vn -0.483301 0.445009 0.753915
vn -0.460048 0.763528 0.45319
vn -0.881402 0.273406 0.385201
vn -0.460048 0.763528 0.45319
vn -0.845119 0.522313 0.113857
vn -0.638715 0.273403 -0.719232
vn -0.888657 0.070023 -0.453196
vn -0.866361 0.445015 -0.226673
vn -0.638715 0.273403 -0.719232
vn -0.866361 0.445015 -0.226673
vn -0.573174 0.763527 -0.297487
vn -0.638715 0.273403 -0.719232
vn -0.573174 0.763527 -0.297487
vn -0.369447 0.522309 -0.768572
vn 0.486652 0.273401 -0.829712
vn 0.156399 0.070018 -0.985209
vn -0.052146 0.44501 -0.894006
vn 0.486652 0.273401 -0.829712
vn -0.052146 0.44501 -0.894006
vn 0.105802 0.763526 -0.637051
vn 0.486652 0.273401 -0.829712
vn 0.105802 0.763526 -0.637051
vn 0.616786 0.522308 -0.588871
vn 0.939485 0.2734 0.206447
vn 0.985319 0.070013 -0.155706
vn 0.834136 0.445009 -0.325859
vn 0.939485 0.2734 0.206447
vn 0.834136 0.445009 -0.325859
vn 0.638563 0.763529 -0.096232
vn 0.939485 0.2734 0.206447
vn 0.638563 0.763529 -0.096232
vn 0.750638 0.522309 0.404643
vn 0.020725 0.96257 0.27024
vn 0.397346 0.912609 0.096232
vn 0.171308 0.94509 -0.278315
vn 0.020725 0.96257 0.27024
vn 0.171308 0.94509 -0.278315
vn -0.211754 0.945089 -0.248931
vn 0.020725 0.96257 0.27024
vn -0.211754 0.945089 -0.248931
vn -0.378026 0.912607 0.155705
vn 0.747154 -0.630225 0.211134
vn 0.460049 -0.763526 0.453191
vn 0.302183 -0.945089 0.124466
vn 0.747154 -0.630225 0.211134
vn 0.302183 -0.945089 0.124466
vn 0.264902 -0.912607 -0.31141
vn 0.747154 -0.630225 0.211134
vn 0.264902 -0.912607 -0.31141
vn 0.573174 -0.763527 -0.297487
vn 0.747154 -0.630225 0.211134
vn 0.573174 -0.763527 -0.297487
vn 0.847864 -0.449016 -0.281978
vn -0.314558 -0.880404 -0.354883
vn -0.328725 -0.93349 0.143303
vn -0.743147 -0.66608 -0.063796
vn -0.314558 -0.880404 -0.354883
vn -0.743147 -0.66608 -0.063796
vn -0.750638 -0.522309 -0.404643
vn -0.314558 -0.880404 -0.354883
vn -0.750638 -0.522309 -0.404643
vn -0.553741 -0.59981 -0.57758
vn -0.314558 -0.880404 -0.354883
vn -0.553741 -0.59981 -0.57758
vn -0.168968 -0.666078 -0.726491
vn 0.045897 -0.880403 0.472
vn 0.302183 -0.945089 0.124466
vn 0.460049 -0.763526 0.453191
vn 0.045897 -0.880403 0.472
vn 0.460049 -0.763526 0.453191
vn 0.438637 -0.516167 0.735642
vn 0.045897 -0.880403 0.472
vn 0.438637 -0.516167 0.735642
vn 0.108507 -0.59981 0.792751
vn 0.045897 -0.880403 0.472
vn 0.108507 -0.59981 0.792751
vn -0.290313 -0.666078 0.687065
vn 0.264902 -0.912607 -0.31141
vn -0.314558 -0.880404 -0.354883
vn -0.168968 -0.666078 -0.726491
vn 0.264902 -0.912607 -0.31141
vn -0.168968 -0.666078 -0.726491
vn 0.152875 -0.522309 -0.838941
vn 0.264902 -0.912607 -0.31141
vn 0.152875 -0.522309 -0.838941
vn 0.458309 -0.575878 -0.676991
vn 0.264902 -0.912607 -0.31141
vn 0.458309 -0.575878 -0.676991
vn 0.573174 -0.763527 -0.297487
vn 0.964311 -0.178802 0.195278
vn 0.747154 -0.630225 0.211134
vn 0.847864 -0.449016 -0.281978
vn 0.964311 -0.178802 0.195278
vn 0.847864 -0.449016 -0.281978
vn 0.900318 -0.01106 -0.435093
vn 0.964311 -0.178802 0.195278
vn 0.900318 -0.01106 -0.435093
vn 0.985319 0.070013 -0.155706
vn 0.964311 -0.178802 0.195278
vn 0.985319 0.070013 -0.155706
vn 0.939485 0.2734 0.206447
vn 0.705616 -0.070019 0.705126
vn 0.964311 -0.178802 0.195278
vn 0.939485 0.2734 0.206447
vn 0.705616 -0.070019 0.705126
vn 0.939485 0.2734 0.206447
vn 0.750638 0.522309 0.404643
vn 0.705616 -0.070019 0.705126
vn 0.750638 0.522309 0.404643
vn 0.567663 0.445008 0.692623
vn 0.705616 -0.070019 0.705126
vn 0.567663 0.445008 0.692623
vn 0.452563 0.070015 0.88898
vn -0.452562 -0.070016 0.88898
vn 0.05466 -0.222593 0.973378
vn 0.093975 0.273402 0.957298
vn -0.452562 -0.070016 0.88898
vn 0.093975 0.273402 0.957298
vn -0.152875 0.522309 0.838941
vn -0.452562 -0.070016 0.88898
vn -0.152875 0.522309 0.838941
vn -0.483301 0.445009 0.753915
vn -0.452562 -0.070016 0.88898
vn -0.483301 0.445009 0.753915
vn -0.705616 0.070016 0.705127
vn -0.985319 -0.070012 -0.155707
vn -0.908846 -0.22259 0.352779
vn -0.881402 0.273406 0.385201
vn -0.985319 -0.070012 -0.155707
vn -0.881402 0.273406 0.385201
vn -0.845119 0.522313 0.113857
vn -0.985319 -0.070012 -0.155707
vn -0.845119 0.522313 0.113857
vn -0.866361 0.445015 -0.226673
vn -0.985319 -0.070012 -0.155707
vn -0.866361 0.445015 -0.226673
vn -0.888657 0.070023 -0.453196
vn -0.156398 -0.070017 -0.985209
vn -0.616351 -0.222591 -0.755358
vn -0.638715 0.273403 -0.719232
vn -0.156398 -0.070017 -0.985209
vn -0.638715 0.273403 -0.719232
vn -0.369447 0.522309 -0.768572
vn -0.156398 -0.070017 -0.985209
vn -0.369447 0.522309 -0.768572
vn -0.052146 0.44501 -0.894006
vn -0.156398 -0.070017 -0.985209
vn -0.052146 0.44501 -0.894006
vn 0.156399 0.070018 -0.985209
vn 0.900318 -0.01106 -0.435093
vn 0.527919 -0.222594 -0.819605
vn 0.486652 0.273401 -0.829712
vn 0.900318 -0.01106 -0.435093
vn 0.486652 0.273401 -0.829712
vn 0.616786 0.522308 -0.588871
vn 0.900318 -0.01106 -0.435093
vn 0.616786 0.522308 -0.588871
vn 0.834136 0.445009 -0.325859
vn 0.900318 -0.01106 -0.435093
vn 0.834136 0.445009 -0.325859
vn 0.985319 0.070013 -0.155706
vn 0.05466 -0.222593 0.973378
vn 0.108507 -0.59981 0.792751
vn 0.438637 -0.516167 0.735642
vn 0.05466 -0.222593 0.973378
vn 0.438637 -0.516167 0.735642
vn 0.705616 -0.070019 0.705126
vn 0.05466 -0.222593 0.973378
vn 0.705616 -0.070019 0.705126
vn 0.452563 0.070015 0.88898
vn 0.05466 -0.222593 0.973378
vn 0.452563 0.070015 0.88898
vn 0.093975 0.273402 0.957298
vn -0.908846 -0.22259 0.352779
vn -0.720419 -0.59981 0.348172
vn -0.616786 -0.522308 0.588871
vn -0.908846 -0.22259 0.352779
vn -0.616786 -0.522308 0.588871
vn -0.452562 -0.070016 0.88898
vn -0.908846 -0.22259 0.352779
vn -0.452562 -0.070016 0.88898
vn -0.705616 0.070016 0.705127
vn -0.908846 -0.22259 0.352779
vn -0.705616 0.070016 0.705127
vn -0.881402 0.273406 0.385201
vn -0.616351 -0.222591 -0.755358
vn -0.553741 -0.59981 -0.57758
vn -0.750638 -0.522309 -0.404643
vn -0.616351 -0.222591 -0.755358
vn -0.750638 -0.522309 -0.404643
vn -0.985319 -0.070012 -0.155707
vn -0.616351 -0.222591 -0.755358
vn -0.985319 -0.070012 -0.155707
vn -0.888657 0.070023 -0.453196
vn -0.616351 -0.222591 -0.755358
vn -0.888657 0.070023 -0.453196
vn -0.638715 0.273403 -0.719232
vn 0.527919 -0.222594 -0.819605
vn 0.458309 -0.575878 -0.676991
vn 0.152875 -0.522309 -0.838941
vn 0.527919 -0.222594 -0.819605
vn 0.152875 -0.522309 -0.838941
vn -0.156398 -0.070017 -0.985209
vn 0.527919 -0.222594 -0.819605
vn -0.156398 -0.070017 -0.985209
vn 0.156399 0.070018 -0.985209
vn 0.527919 -0.222594 -0.819605
vn 0.156399 0.070018 -0.985209
vn 0.486652 0.273401 -0.829712
vn 0.288843 0.763527 0.577578
vn 0.567663 0.445008 0.692623
vn 0.750638 0.522309 0.404643
vn 0.288843 0.763527 0.577578
vn 0.750638 0.522309 0.404643
vn 0.638563 0.763529 -0.096232
vn 0.288843 0.763527 0.577578
vn 0.638563 0.763529 -0.096232
vn 0.397346 0.912609 0.096232
vn 0.288843 0.763527 0.577578
vn 0.397346 0.912609 0.096232
vn 0.020725 0.96257 0.27024
vn -0.460048 0.763528 0.45319
vn -0.483301 0.445009 0.753915
vn -0.152875 0.522309 0.838941
vn -0.460048 0.763528 0.45319
vn -0.152875 0.522309 0.838941
vn 0.288843 0.763527 0.577578
vn -0.460048 0.763528 0.45319
vn 0.288843 0.763527 0.577578
vn 0.020725 0.96257 0.27024
vn -0.460048 0.763528 0.45319
vn 0.020725 0.96257 0.27024
vn -0.378026 0.912607 0.155705
vn -0.573174 0.763527 -0.297487
vn -0.866361 0.445015 -0.226673
vn -0.845119 0.522313 0.113857
vn -0.573174 0.763527 -0.297487
vn -0.845119 0.522313 0.113857
vn -0.460048 0.763528 0.45319
vn -0.573174 0.763527 -0.297487
vn -0.460048 0.763528 0.45319
vn -0.378026 0.912607 0.155705
vn -0.573174 0.763527 -0.297487
vn -0.378026 0.912607 0.155705
vn -0.211754 0.945089 -0.248931
vn 0.105802 0.763526 -0.637051
vn -0.052146 0.44501 -0.894006
vn -0.369447 0.522309 -0.768572
vn 0.105802 0.763526 -0.637051
vn -0.369447 0.522309 -0.768572
vn -0.573174 0.763527 -0.297487
vn 0.105802 0.763526 -0.637051
vn -0.573174 0.763527 -0.297487
vn -0.211754 0.945089 -0.248931
vn 0.105802 0.763526 -0.637051
vn -0.211754 0.945089 -0.248931
vn 0.171308 0.94509 -0.278315
vn 0.638563 0.763529 -0.096232
vn 0.834136 0.445009 -0.325859
vn 0.616786 0.522308 -0.588871
vn 0.638563 0.763529 -0.096232
vn 0.616786 0.522308 -0.588871
vn 0.105802 0.763526 -0.637051
vn 0.638563 0.763529 -0.096232
vn 0.105802 0.763526 -0.637051
vn 0.171308 0.94509 -0.278315
vn 0.638563 0.763529 -0.096232
vn 0.171308 0.94509 -0.278315
vn 0.397346 0.912609 0.096232
vn -0.328725 -0.93349 0.143303
vn 0.045897 -0.880403 0.472
vn -0.290313 -0.666078 0.687065
vn -0.328725 -0.93349 0.143303
vn -0.290313 -0.666078 0.687065
vn -0.616786 -0.522308 0.588871
vn -0.328725 -0.93349 0.143303
vn -0.616786 -0.522308 0.588871
vn -0.720419 -0.59981 0.348172
vn -0.328725 -0.93349 0.143303
vn -0.720419 -0.59981 0.348172
vn -0.743147 -0.66608 -0.063796

# default, 36 grouped triangles

usemtl BlackMaterial
o default
g default

f 1/1/1 2/2/2 3/3/3
f 1/4/4 3/5/5 4/6/6
f 1/7/7 4/8/8 5/9/9
f 6/10/10 7/11/11 8/12/12
f 6/13/13 8/14/14 9/15/15
f 6/16/16 9/17/17 10/18/18
f 11/19/19 12/20/20 13/21/21
f 11/22/22 13/23/23 14/24/24
f 11/25/25 14/26/26 15/27/27
f 16/28/28 17/29/29 18/30/30
f 16/31/31 18/32/32 19/33/33
f 16/34/34 19/35/35 20/36/36
f 21/37/37 22/38/38 23/39/39
f 21/40/40 23/41/41 24/42/42
f 21/43/43 24/44/44 25/45/45
f 26/46/46 27/47/47 28/48/48
f 26/49/49 28/50/50 29/51/51
f 26/52/52 29/53/53 30/54/54
f 31/55/55 32/56/56 33/57/57
f 31/58/58 33/59/59 34/60/60
f 31/61/61 34/62/62 35/63/63
f 36/64/64 37/65/65 38/66/66
f 36/67/67 38/68/68 39/69/69
f 36/70/70 39/71/71 40/72/72
f 41/73/73 42/74/74 43/75/75
f 41/76/76 43/77/77 44/78/78
f 41/79/79 44/80/80 45/81/81
f 46/82/82 47/83/83 48/84/84
f 46/85/85 48/86/86 49/87/87
f 46/88/88 49/89/89 50/90/90
f 51/91/91 52/92/92 53/93/93
f 51/94/94 53/95/95 54/96/96
f 51/97/97 54/98/98 55/99/99
f 56/100/100 57/101/101 58/102/102
f 56/103/103 58/104/104 59/105/105
f 56/106/106 59/107/107 60/108/108
# 2, 80 grouped triangles

usemtl WhiteMaterial
o 2
g 2

f 6/109/109 10/110/110 4/111/111
f 6/112/112 4/113/113 3/114/114
f 6/115/115 3/116/116 27/117/117
f 6/118/118 27/119/119 26/120/120
f 2/121/121 1/122/122 16/123/123
f 2/124/124 16/125/125 20/126/126
f 2/127/127 20/128/128 22/129/129
f 2/130/130 22/131/131 21/132/132
f 5/133/133 4/134/134 10/135/135
f 5/136/136 10/137/137 9/138/138
f 5/139/139 9/140/140 12/141/141
f 5/142/142 12/143/143 11/144/144
f 3/145/145 2/146/146 21/147/147
f 3/148/148 21/149/149 25/150/150
f 3/151/151 25/152/152 28/153/153
f 3/154/154 28/155/155 27/156/156
f 7/157/157 6/158/158 26/159/159
f 7/160/160 26/161/161 30/162/162
f 7/163/163 30/164/164 52/165/165
f 7/166/166 52/167/167 51/168/168
f 8/169/169 7/170/170 51/171/171
f 8/172/172 51/173/173 55/174/174
f 8/175/175 55/176/176 33/177/177
f 8/178/178 33/179/179 32/180/180
f 14/181/181 13/182/182 31/183/183
f 14/184/184 31/185/185 35/186/186
f 14/187/187 35/188/188 38/189/189
f 14/190/190 38/191/191 37/192/192
f 19/193/193 18/194/194 36/195/195
f 19/196/196 36/197/197 40/198/198
f 19/199/199 40/200/200 43/201/201
f 19/202/202 43/203/203 42/204/204
f 24/205/205 23/206/206 41/207/207
f 24/208/208 41/209/209 45/210/210
f 24/211/211 45/212/212 48/213/213
f 24/214/214 48/215/215 47/216/216
f 30/217/217 29/218/218 46/219/219
f 30/220/220 46/221/221 50/222/222
f 30/223/223 50/224/224 53/225/225
f 30/226/226 53/227/227 52/228/228
f 13/229/229 12/230/230 9/231/231
f 13/232/232 9/233/233 8/234/234
f 13/235/235 8/236/236 32/237/237
f 13/238/238 32/239/239 31/240/240
f 18/241/241 17/242/242 15/243/243
f 18/244/244 15/245/245 14/246/246
f 18/247/247 14/248/248 37/249/249
f 18/250/250 37/251/251 36/252/252
f 23/253/253 22/254/254 20/255/255
f 23/256/256 20/257/257 19/258/258
f 23/259/259 19/260/260 42/261/261
f 23/262/262 42/263/263 41/264/264
f 29/265/265 28/266/266 25/267/267
f 29/268/268 25/269/269 24/270/270
f 29/271/271 24/272/272 47/273/273
f 29/274/274 47/275/275 46/276/276
f 34/277/277 33/278/278 55/279/279
f 34/280/280 55/281/281 54/282/282
f 34/283/283 54/284/284 57/285/285
f 34/286/286 57/287/287 56/288/288
f 39/289/289 38/290/290 35/291/291
f 39/292/292 35/293/293 34/294/294
f 39/295/295 34/296/296 56/297/297
f 39/298/298 56/299/299 60/300/300
f 44/301/301 43/302/302 40/303/303
f 44/304/304 40/305/305 39/306/306
f 44/307/307 39/308/308 60/309/309
f 44/310/310 60/311/311 59/312/312
f 49/313/313 48/314/314 45/315/315
f 49/316/316 45/317/317 44/318/318
f 49/319/319 44/320/320 59/321/321
f 49/322/322 59/323/323 58/324/324
f 54/325/325 53/326/326 50/327/327
f 54/328/328 50/329/329 49/330/330
f 54/331/331 49/332/332 58/333/333
f 54/334/334 58/335/335 57/336/336
f 1/337/337 5/338/338 11/339/339
f 1/340/340 11/341/341 15/342/342
f 1/343/343 15/344/344 17/345/345
f 1/346/346 17/347/347 16/348/348
